
<svg width="605px" height="239px" viewBox="0 0 605 239" version="1.1" xmlns="http://www.w3.org/2000/svg" xmlns:xlink="http://www.w3.org/1999/xlink">
    <defs>
        <linearGradient x1="50.0000557%" y1="0%" x2="50.0000557%" y2="100.00013%" id="linearGradient-1">
            <stop stop-color="#FFFFFF" stop-opacity="0" offset="0%"></stop>
            <stop stop-color="#FFFFFF" stop-opacity="0.8" offset="100%"></stop>
        </linearGradient>
        <path d="M7.16631783,7.36869665 C8.13078801,11.8920156 19.6566621,29.7840091 4.93699422,49.6534339 C4.93699422,49.6534339 -0.72851825,56.801605 0.283053446,59.5888099 C1.29373643,62.3757937 6.39158677,64.7038099 4.13071403,59.4019051 C3.49706534,57.9144078 4.54574059,52.6235624 7.60178467,50.6324173 C10.6580509,48.6408298 32.1645584,33.6997213 18.6673081,5.87434249 C16.780137,2.07431222 13.5823441,0.0696745946 10.994649,0.0696745946 C8.19588586,0.0694534054 6.11008856,2.41428 7.16631783,7.36869665" id="path-2"></path>
        <linearGradient x1="66.508591%" y1="36.4967973%" x2="26.8405934%" y2="68.9347799%" id="linearGradient-4">
            <stop stop-color="#CF341D" offset="0%"></stop>
            <stop stop-color="#527162" offset="50%"></stop>
            <stop stop-color="#86858C" offset="100%"></stop>
        </linearGradient>
        <path d="M2.72277864,6.92631827 C3.68724882,11.4496372 15.2131229,29.3416307 0.493455027,49.2110556 C0.493455027,49.2110556 0.314158221,49.4368897 0.0262168812,49.8235284 C4.70193099,46.9206415 8.79132011,42.6417366 11.6427392,37.2305643 C18.8217211,23.6059738 15.6179294,7.627488 4.66860445,0.0488828108 C2.92340443,0.924349622 1.92383029,3.17848865 2.72277864,6.92631827" id="path-5"></path>
        <linearGradient x1="77.4240216%" y1="36.2389082%" x2="5.34898714%" y2="72.4406512%" id="linearGradient-7">
            <stop stop-color="#CF341D" offset="0%"></stop>
            <stop stop-color="#527162" offset="50%"></stop>
            <stop stop-color="#86858C" offset="100%"></stop>
        </linearGradient>
        <linearGradient x1="39.68762%" y1="49.9568%" x2="64.06514%" y2="49.9568%" id="linearGradient-8">
            <stop stop-color="#CE8938" offset="0%"></stop>
            <stop stop-color="#FBCC98" offset="53.99%"></stop>
            <stop stop-color="#C8977F" offset="100%"></stop>
        </linearGradient>
        <linearGradient x1="-0.000181861214%" y1="49.9997123%" x2="99.999313%" y2="49.9997123%" id="linearGradient-9">
            <stop stop-color="#CE8938" offset="0%"></stop>
            <stop stop-color="#FBCC98" offset="53.99%"></stop>
            <stop stop-color="#C8977F" offset="100%"></stop>
        </linearGradient>
        <path d="M15.5177276,2.50563114 C-9.32232304,21.0322164 2.87119285,44.1469291 4.66460526,47.3150218 C6.45823986,50.482451 4.94521476,55.6613747 3.69502501,56.6912316 C-0.762066971,60.3640781 4.84056942,60.6308322 7.02523546,58.6193377 C9.21123456,56.6076221 7.48336435,47.6660491 7.48336435,47.6660491 C3.59260143,23.28348 22.0932768,12.6736982 25.0393433,9.09905968 C29.3526868,3.86505989 26.5268181,0.200839784 22.0055169,0.200839784 C20.0163666,0.200618595 17.6995053,0.909529946 15.5177276,2.50563114" id="path-10"></path>
        <linearGradient x1="39.4866582%" y1="23.9910302%" x2="60.2974914%" y2="75.4478443%" id="linearGradient-12">
            <stop stop-color="#CE8938" offset="0%"></stop>
            <stop stop-color="#FBCC98" offset="53.99%"></stop>
            <stop stop-color="#C8977F" offset="100%"></stop>
        </linearGradient>
        <linearGradient x1="42.40658%" y1="45.64212%" x2="64.0646%" y2="45.64212%" id="linearGradient-13">
            <stop stop-color="#CE8938" offset="0%"></stop>
            <stop stop-color="#FBCC98" offset="53.99%"></stop>
            <stop stop-color="#C8977F" offset="100%"></stop>
        </linearGradient>
        <linearGradient x1="1.88386263e-05%" y1="49.999809%" x2="100.000111%" y2="49.999809%" id="linearGradient-14">
            <stop stop-color="#CE8938" offset="0%"></stop>
            <stop stop-color="#FBCC98" offset="53.99%"></stop>
            <stop stop-color="#C8977F" offset="100%"></stop>
        </linearGradient>
        <path d="M0.00777619358,29.9317635 C0.0397696757,36.0421148 1.69387714,41.7145116 4.50463785,46.4331405 C4.42732027,45.9582474 4.37266474,45.6751252 4.37266474,45.6751252 C0.481901825,21.2925561 18.9825772,10.6827743 21.9286437,7.10813578 C24.3694798,4.14574897 24.5236706,1.68678876 23.3776818,0.109931027 C10.1545979,1.82591676 -0.0726518657,14.5467282 0.00777619358,29.9317635" id="path-15"></path>
        <linearGradient x1="25.8747871%" y1="20.0095947%" x2="76.6580373%" y2="83.190806%" id="linearGradient-17">
            <stop stop-color="#CE8938" offset="0%"></stop>
            <stop stop-color="#FBCC98" offset="53.99%"></stop>
            <stop stop-color="#C8977F" offset="100%"></stop>
        </linearGradient>
        <path d="M7.20519879,4.82634811 C-9.9697467,30.5641434 9.29432874,48.2796279 12.0499896,50.6669228 C14.8056504,53.0537754 15.121586,58.4379626 14.2899777,59.8252612 C11.3254705,64.7714938 16.6945989,63.155928 18.0767618,60.5317395 C19.4598133,57.9075509 14.8238689,50.057989 14.8238689,50.057989 C2.95695315,28.3794577 16.8212398,12.215173 18.3949192,7.86460281 C20.2649826,2.69408432 18.0505449,0.0661355676 14.871637,0.0663567568 C12.4116937,0.0665779459 9.37431245,1.64033903 7.20519879,4.82634811" id="path-18"></path>
        <linearGradient x1="35.3227487%" y1="34.3072491%" x2="70.8768439%" y2="72.3540213%" id="linearGradient-20">
            <stop stop-color="#658BC8" offset="7.98%"></stop>
            <stop stop-color="#F8EF8D" offset="57.06%"></stop>
            <stop stop-color="#EC6730" offset="89.57%"></stop>
        </linearGradient>
        <path d="M2.08313117,36.0155721 C4.16848411,41.7618461 7.63488903,46.5550158 11.8704706,50.0648458 C11.6378513,49.6428169 11.4912145,49.3948638 11.4912145,49.3948638 C-0.375701238,27.7163325 13.4885854,11.5520478 15.0622648,7.20147762 C16.3659992,3.59653622 15.6839159,1.22826357 14.0740217,0.124308324 C2.190887,6.14905946 -3.16735473,21.5447118 2.08313117,36.0155721" id="path-21"></path>
        <linearGradient x1="22.4623713%" y1="32.2869487%" x2="91.5646014%" y2="76.6999442%" id="linearGradient-23">
            <stop stop-color="#658BC8" offset="7.98%"></stop>
            <stop stop-color="#F8EF8D" offset="57.06%"></stop>
            <stop stop-color="#EC6730" offset="89.57%"></stop>
        </linearGradient>
        <path d="M38.307307,4.41714811 C36.2415056,8.55869449 34.1150499,29.7090259 10.1841475,36.1825699 C10.1841475,36.1825699 1.28462718,38.2832037 0.33904204,41.0934123 C-0.607431807,43.9020726 1.9362722,48.8788294 3.47173717,43.3252112 C3.90231612,41.7678182 8.0248096,38.2690476 11.662513,38.5972923 C15.3002163,38.9257583 41.4768835,40.5099152 48.2532808,10.3560778 C49.4696996,4.69982789 46.6880441,0.155717189 43.400936,0.155274811 C41.6739545,0.155274811 39.8072236,1.4096387 38.307307,4.41714811" id="path-24"></path>
        <linearGradient x1="99.6095894%" y1="49.2116048%" x2="3.48653367%" y2="50.7670128%" id="linearGradient-26">
            <stop stop-color="#ECDFAB" offset="0%"></stop>
            <stop stop-color="#9D9FA6" offset="34.97%"></stop>
            <stop stop-color="#8ECCF1" offset="69.94%"></stop>
            <stop stop-color="#ECDFAB" offset="100%"></stop>
        </linearGradient>
        <path d="M28.9758747,4.41714811 C26.9100733,8.55869449 24.7836176,29.7090259 0.85271517,36.1825699 C0.85271517,36.1825699 0.570994786,36.2491479 0.104423171,36.3738986 C5.58019651,36.9890257 11.4549997,36.1631053 17.0649679,33.6849016 C31.1903124,27.444491 38.6456825,12.9391252 34.7911344,0.229815568 C34.5540716,0.180932757 34.3132318,0.156159568 34.0690593,0.156159568 C32.3420778,0.156159568 30.475347,1.41008108 28.9758747,4.41714811" id="path-27"></path>
        <linearGradient x1="94.9927594%" y1="61.3607044%" x2="-2.95018421%" y2="36.5710121%" id="linearGradient-29">
            <stop stop-color="#ECDFAB" offset="0%"></stop>
            <stop stop-color="#9D9FA6" offset="34.97%"></stop>
            <stop stop-color="#8ECCF1" offset="69.94%"></stop>
            <stop stop-color="#ECDFAB" offset="100%"></stop>
        </linearGradient>
    </defs>
    <g id="Page-1" stroke="none" stroke-width="1" fill="none" fill-rule="evenodd">
        <g id="Rectangle">
            <rect fill="#C4C4C4" fill-rule="evenodd" x="0" y="0" width="605" height="239"></rect>
            <text id="Fish-Tank-Suite" font-family="LatoLatin-Regular, LatoLatin" font-size="50" font-weight="normal" letter-spacing="-0.00861111097" fill="#000000">
                <tspan x="188" y="135">Fish Tank Suite</tspan>
            </text>
            <g id="fts" stroke-width="1" fill-rule="evenodd" transform="translate(38.000000, 59.000000)">
                <circle id="Oval" fill="#E9E9E9" fill-rule="nonzero" cx="60" cy="60" r="60"></circle>
                <circle id="Oval" fill="url(#linearGradient-1)" fill-rule="nonzero" opacity="0.7" cx="60" cy="60" r="60"></circle>
                <g id="Group" transform="translate(18.000000, 11.000000)">
                    <g id="Clipped" transform="translate(48.878931, 0.000000)">
                        <mask id="mask-3" fill="white">
                            <use xlink:href="#path-2"></use>
                        </mask>
                        <g id="SVGID_2_"></g>
                        <polygon id="Path" fill="url(#linearGradient-4)" fill-rule="nonzero" mask="url(#mask-3)" points="63.9951849 38.7258032 12.4916774 80.7590484 -32.5593669 26.0474601 18.9439184 -15.9857851"></polygon>
                    </g>
                    <g id="Clipped" transform="translate(53.322470, 0.442378)">
                        <mask id="mask-6" fill="white">
                            <use xlink:href="#path-5"></use>
                        </mask>
                        <g id="SVGID_5_"></g>
                        <polygon id="Path" fill="url(#linearGradient-7)" fill-rule="nonzero" mask="url(#mask-6)" points="37.3212856 41.6746975 3.10336777 56.7469712 -18.4735698 8.19793492 15.7445702 -6.87456"></polygon>
                    </g>
                    <path d="M43.8990567,52.0108683 C42.815944,51.5780011 41.2780351,55.3961689 43.6240016,56.3326839 C45.9693016,57.2698625 49.1388781,56.0331937 49.4468154,55.5297671 C49.7543083,55.0272253 50.7401075,53.2309479 50.7401075,53.2309479 C50.7401075,53.2309479 48.320156,54.0369613 43.8990567,52.0108683 L43.8990567,52.0108683 Z M68.0170322,39.2354231 C68.3358561,40.4809395 69.3798657,40.7005803 69.6164841,40.6789038 C70.5547374,40.1759196 69.4498514,36.6245059 69.4498514,36.6245059 C69.4498514,36.6245059 68.9190706,37.1569083 68.0170322,39.2354231 L68.0170322,39.2354231 Z M60.3265989,33.5506398 C60.3265989,33.5506398 57.6458117,34.7758067 57.4298557,35.9551875 C57.6935798,36.3090902 58.1599292,36.9089552 59.7040591,36.5402329 L60.3265989,33.5506398 Z M71.5545337,14.9871159 L72.6169839,20.3679853 C73.7838573,20.9466162 76.2146955,20.7048564 76.3040106,18.5672841 C76.0305108,16.0926195 71.5545337,14.9871159 71.5545337,14.9871159 L71.5545337,14.9871159 Z M59.9422328,21.8112448 L58.5398518,16.3983029 C58.5398518,16.3983029 54.9152569,19.3677678 55.7586406,21.7632467 C56.7853204,23.6900257 59.126399,22.8514975 59.9422328,21.8112448 L59.9422328,21.8112448 Z M63.0847037,39.1374363 C62.4674961,40.956275 59.2623713,46.7662515 59.2623713,46.7662515 C70.591841,33.7808977 64.8585645,18.9512685 64.8585645,18.9512685 C66.3269321,29.7464069 63.7010226,37.3188188 63.0847037,39.1374363 L63.0847037,39.1374363 Z" id="Shape" fill="#3C3B41" fill-rule="nonzero"></path>
                    <g transform="translate(25.994704, 14.156108)">
                        <g id="SVGID_8_-link" fill="url(#linearGradient-9)" fill-rule="nonzero">
                            <path d="M15.5177276,2.50563114 C-9.32232304,21.0322164 2.87119285,44.1469291 4.66460526,47.3150218 C6.45823986,50.482451 4.94521476,55.6613747 3.69502501,56.6912316 C-0.762066971,60.3640781 4.84056942,60.6308322 7.02523546,58.6193377 C9.21123456,56.6076221 7.48336435,47.6660491 7.48336435,47.6660491 C3.59260143,23.28348 22.0932768,12.6736982 25.0393433,9.09905968 C29.3526868,3.86505989 26.5268181,0.200839784 22.0055169,0.200839784 C20.0163666,0.200618595 17.6995053,0.909529946 15.5177276,2.50563114" id="SVGID_8_"></path>
                        </g>
                        <g id="Clipped">
                            <mask id="mask-11" fill="white">
                                <use xlink:href="#path-10"></use>
                            </mask>
                            <g id="SVGID_8_"></g>
                            <polygon id="Path" fill="url(#linearGradient-12)" fill-rule="nonzero" mask="url(#mask-11)" points="-31.3538347 9.63411632 -3.28488635 74.6060076 51.3837541 51.1975557 23.3150279 -13.7741144"></polygon>
                        </g>
                    </g>
                    <g transform="translate(29.105182, 16.146811)">
                        <g id="SVGID_12_-link" fill="url(#linearGradient-14)" fill-rule="nonzero">
                            <path d="M0.00777619358,29.9317635 C0.0397696757,36.0421148 1.69387714,41.7145116 4.50463785,46.4331405 C4.42732027,45.9582474 4.37266474,45.6751252 4.37266474,45.6751252 C0.481901825,21.2925561 18.9825772,10.6827743 21.9286437,7.10813578 C24.3694798,4.14574897 24.5236706,1.68678876 23.3776818,0.109931027 C10.1545979,1.82591676 -0.0726518657,14.5467282 0.00777619358,29.9317635" id="SVGID_12_"></path>
                        </g>
                        <g id="Clipped">
                            <mask id="mask-16" fill="white">
                                <use xlink:href="#path-15"></use>
                            </mask>
                            <g id="SVGID_12_"></g>
                            <polygon id="Path" fill="url(#linearGradient-17)" fill-rule="nonzero" mask="url(#mask-16)" points="-22.7862468 18.2576192 9.56316286 58.3862043 47.2368212 28.2854523 14.8876337 -11.8431328"></polygon>
                        </g>
                    </g>
                    <path d="M34.5562934,66.4074091 C34.5562934,66.4074091 34.6013953,68.4534091 34.642498,69.0408876 C34.6836008,69.6285872 36.9264772,72.178235 39.4421869,72.4197736 C41.9576744,72.6624182 42.3558155,68.5679851 41.1947188,68.4560634 C36.332376,68.2308928 34.5562934,66.4074091 34.5562934,66.4074091 M23.5940822,46.6182759 C23.7938193,46.7456809 24.8224986,47.0283606 25.6812126,46.0688419 C25.8405134,43.8098368 25.615226,43.0947321 25.615226,43.0947321 C25.615226,43.0947321 22.9933157,45.7419243 23.5940822,46.6182759 M35.1359531,44.5426365 L34.3074552,47.4822409 C35.5080995,48.5167427 36.1995142,48.1971243 36.5969888,48.0040262 C36.9502501,46.858045 35.1359531,44.5426365 35.1359531,44.5426365 M27.871433,23.9220532 C26.9627293,25.8609976 29.0096456,27.1887963 30.3131578,27.2091457 L33.7426814,22.9178543 C33.7426814,22.9178543 29.2573729,21.8497317 27.871433,23.9220532 M44.6382394,36.1673079 C46.4938614,34.426549 44.6473487,30.1303914 44.6473487,30.1303914 L40.9014452,34.294499 C41.1451733,35.5915524 42.8363843,37.4086216 44.6382394,36.1673079 M29.9754488,56.7646664 C29.9754488,56.7646664 29.813704,50.1376171 30.1060889,48.240035 C30.3986959,46.3431165 31.5657915,38.4168019 37.8567321,29.5037624 C37.8567321,29.5037624 25.9147205,40.0465239 29.9754488,56.7646664" id="Shape" fill="#9B3511" fill-rule="nonzero"></path>
                    <g id="Clipped" transform="translate(3.332654, 35.169081)">
                        <mask id="mask-19" fill="white">
                            <use xlink:href="#path-18"></use>
                        </mask>
                        <g id="SVGID_16_"></g>
                        <polygon id="Path" fill="url(#linearGradient-20)" fill-rule="nonzero" mask="url(#mask-19)" points="-42.3742562 29.9766649 4.00629493 79.7787379 52.66927 34.8614069 6.28871884 -14.9406662"></polygon>
                    </g>
                    <g id="Clipped" transform="translate(6.665309, 35.832649)">
                        <mask id="mask-22" fill="white">
                            <use xlink:href="#path-21"></use>
                        </mask>
                        <g id="SVGID_19_"></g>
                        <polygon id="Path" fill="url(#linearGradient-23)" fill-rule="nonzero" mask="url(#mask-22)" points="-25.5896757 36.2847594 10.9759861 58.7571386 38.7883201 13.9043948 2.2226583 -8.56820562"></polygon>
                    </g>
                    <path d="M27.6588097,88.906331 C23.0017584,90.3146426 20.7146688,89.1885684 20.7146688,89.1885684 C20.7146688,89.1885684 21.445631,91.1011914 21.6818051,91.6411142 C21.9179792,92.1812582 24.8891517,93.8359745 27.3408745,93.2252711 C29.7930416,92.6152314 28.7908013,88.6243148 27.6588097,88.906331 L27.6588097,88.906331 Z M3.72946244,74.196144 C3.96074866,74.2494506 5.02519847,74.1731403 5.51154383,72.9824789 C4.90189026,70.8011111 4.44887144,70.2021308 4.44887144,70.2021308 C4.44887144,70.2021308 2.8687489,73.570621 3.72946244,74.196144 L3.72946244,74.196144 Z M13.907389,68.3923609 L14.1153466,71.4385784 C15.594823,72.0130067 16.1387122,71.4814891 16.4484268,71.1671792 C16.3955487,69.969661 13.907389,68.3923609 13.907389,68.3923609 L13.907389,68.3923609 Z M5.320916,48.4806889 C5.320916,48.4806889 0.735405736,48.9692958 0.12641869,51.3840182 C-0.0775397588,53.5136277 2.29753194,54.0825263 3.53283583,53.6675754 L5.320916,48.4806889 Z M15.8927623,56.8142128 C16.5588488,57.9551066 18.7632886,59.1032997 20.0436944,57.3333438 C21.2067908,55.0743386 18.0218841,51.6419248 18.0218841,51.6419248 L15.8927623,56.8142128 Z M11.4125639,53.3149998 C11.4125639,53.3149998 3.70568951,67.2300117 13.1553199,81.6296491 C13.1553199,81.6296491 10.7738051,75.4392272 10.4109901,73.5533682 C10.0488417,71.6683939 8.48271631,63.810648 11.4125639,53.3149998 L11.4125639,53.3149998 Z" id="Shape" fill="#3B4395" fill-rule="nonzero"></path>
                    <g id="Clipped" transform="translate(31.549128, 45.564973)">
                        <mask id="mask-25" fill="white">
                            <use xlink:href="#path-24"></use>
                        </mask>
                        <g id="SVGID_22_"></g>
                        <polygon id="Path" fill="url(#linearGradient-26)" fill-rule="nonzero" mask="url(#mask-25)" points="50.2859778 48.8653369 -0.593434659 49.7102796 -1.42348778 0.168546162 49.4557025 -0.676175351"></polygon>
                    </g>
                    <g id="Clipped" transform="translate(40.880561, 45.564973)">
                        <mask id="mask-28" fill="white">
                            <use xlink:href="#path-27"></use>
                        </mask>
                        <g id="SVGID_25_"></g>
                        <polygon id="Path" fill="url(#linearGradient-29)" fill-rule="nonzero" mask="url(#mask-28)" points="36.2226206 46.3026389 -8.87596953 34.6736173 2.52748509 -9.15723243 47.625853 2.47178919"></polygon>
                    </g>
                    <path d="M32.4896033,77.4644355 C31.9108323,76.4560339 28.3235631,78.4976102 29.5781964,80.6820746 C30.8317188,82.866539 34.0877222,83.8570242 34.6429424,83.6528666 C35.1974961,83.4489302 37.0904438,82.6504372 37.0904438,82.6504372 C37.0904438,82.6504372 34.6911548,81.7860298 32.4896033,77.4644355 M59.7156123,84.4818837 C60.7651762,84.6676826 62.1140125,81.2009844 62.1140125,81.2009844 C62.1140125,81.2009844 61.3666093,81.2899025 59.3625731,82.3615641 C58.8355693,83.5345304 59.5169861,84.3527092 59.7156123,84.4818837 M54.5282246,75.1098765 L56.8808564,73.1512463 C56.8808564,73.1512463 54.0154402,72.4545003 53.1105134,73.2454729 C53.0965163,73.6854182 53.0876292,74.4440971 54.5282246,75.1098765 M77.2604824,65.5425594 L74.7369965,70.4169055 C75.2908837,71.5914201 77.3471314,72.9052839 78.7501789,71.2848519 C80.0794637,69.175813 77.2604824,65.5425594 77.2604824,65.5425594 M63.9020927,63.7117764 L66.1789622,58.602085 C66.1789622,58.602085 61.4859183,58.6887911 60.6527547,61.0875879 C60.2557245,63.2326806 62.6136885,64.0227684 63.9020927,63.7117764 M55.5577927,79.2352761 C53.9396779,80.2795103 47.8029281,82.8523829 47.8029281,82.8523829 C64.7830244,79.6783181 69.5393887,64.5100482 69.5393887,64.5100482 C63.9567482,73.8789587 57.1754631,78.1910419 55.5577927,79.2352761" id="Shape" fill="#4B6971" fill-rule="nonzero"></path>
                </g>
            </g>
        </g>
    </g>
</svg>
