<?xml version="1.0" encoding="utf-8"?>
<!-- Generator: Adobe Illustrator 17.0.0, SVG Export Plug-In . SVG Version: 6.00 Build 0)  -->
<!DOCTYPE svg PUBLIC "-//W3C//DTD SVG 1.1//EN" "http://www.w3.org/Graphics/SVG/1.1/DTD/svg11.dtd">
<svg version="1.1" id="Ebene_1" xmlns="http://www.w3.org/2000/svg" xmlns:xlink="http://www.w3.org/1999/xlink" x="0px" y="0px"
	 width="282.164px" height="60.667px" viewBox="-9.503 3.972 282.164 60.667" enable-background="new -9.503 3.972 282.164 60.667"
	 xml:space="preserve" style="background: #dde5fb;">
<rect x="0" y="12.533" fill="none" width="272.661" height="42.545"/>
<g enable-background="new    ">
	<path d="M4.318,45.972v-31.41H7.97v28.101h13.857v3.309H4.318z"/>
	<path d="M46.943,34.178c0,3.838-0.967,6.835-2.9,8.991c-1.934,2.156-4.605,3.233-8.014,3.233c-2.105,0-3.975-0.494-5.607-1.482
		s-2.894-2.406-3.781-4.254c-0.888-1.848-1.332-4.01-1.332-6.488c0-3.838,0.959-6.828,2.879-8.97
		c1.919-2.141,4.583-3.212,7.992-3.212c3.294,0,5.912,1.096,7.853,3.287C45.973,27.475,46.943,30.44,46.943,34.178z M29.004,34.178
		c0,3.007,0.602,5.299,1.805,6.875s2.972,2.363,5.307,2.363c2.334,0,4.107-0.784,5.317-2.353c1.21-1.568,1.815-3.863,1.815-6.885
		c0-2.993-0.605-5.267-1.815-6.821c-1.21-1.554-2.997-2.331-5.36-2.331c-2.335,0-4.097,0.767-5.285,2.299
		C29.598,28.858,29.004,31.142,29.004,34.178z"/>
	<path d="M63.937,21.996c1.045,0,1.983,0.086,2.814,0.258l-0.494,3.309c-0.974-0.215-1.833-0.322-2.578-0.322
		c-1.905,0-3.534,0.773-4.888,2.32s-2.03,3.474-2.03,5.779v12.632h-3.566V22.426h2.943l0.408,4.361h0.172
		c0.874-1.532,1.926-2.714,3.158-3.545C61.108,22.412,62.462,21.996,63.937,21.996z"/>
	<path d="M81.103,46.402c-3.48,0-6.227-1.06-8.239-3.18c-2.013-2.119-3.019-5.062-3.019-8.83c0-3.794,0.935-6.81,2.804-9.044
		s4.379-3.352,7.53-3.352c2.95,0,5.285,0.971,7.004,2.911c1.719,1.941,2.578,4.501,2.578,7.681v2.255h-16.22
		c0.071,2.765,0.77,4.863,2.095,6.295c1.325,1.433,3.19,2.148,5.597,2.148c2.535,0,5.042-0.529,7.52-1.59v3.18
		c-1.261,0.545-2.453,0.935-3.577,1.171C84.05,46.284,82.693,46.402,81.103,46.402z M80.137,24.983
		c-1.891,0-3.398,0.616-4.522,1.848c-1.125,1.232-1.787,2.937-1.987,5.113h12.311c0-2.248-0.501-3.971-1.504-5.167
		C83.431,25.581,81.998,24.983,80.137,24.983z"/>
	<path d="M125.855,45.972V30.655c0-1.876-0.401-3.283-1.203-4.222c-0.802-0.938-2.048-1.407-3.738-1.407
		c-2.22,0-3.86,0.638-4.92,1.912c-1.06,1.275-1.59,3.237-1.59,5.887v13.148h-3.566V30.655c0-1.876-0.401-3.283-1.203-4.222
		c-0.802-0.938-2.056-1.407-3.76-1.407c-2.234,0-3.871,0.67-4.909,2.009c-1.039,1.34-1.558,3.534-1.558,6.585v12.353h-3.566V22.426
		h2.9l0.58,3.223h0.172c0.673-1.146,1.622-2.041,2.847-2.686s2.596-0.967,4.114-0.967c3.681,0,6.087,1.332,7.219,3.996h0.172
		c0.702-1.231,1.719-2.205,3.051-2.922c1.332-0.716,2.85-1.074,4.555-1.074c2.664,0,4.658,0.685,5.983,2.052
		c1.325,1.368,1.987,3.556,1.987,6.563v15.361H125.855z"/>
</g>
<g enable-background="new    ">
	<path d="M135.094,33.448l19.507-10.871c0.315-0.172,0.552-0.258,0.709-0.258c0.243,0,0.455,0.09,0.634,0.269
		c0.179,0.18,0.269,0.391,0.269,0.634c0,0.358-0.243,0.674-0.73,0.945l-16.715,9.281l16.693,9.281
		c0.487,0.272,0.73,0.588,0.73,0.945c0,0.244-0.09,0.455-0.269,0.634c-0.179,0.18-0.391,0.269-0.634,0.269
		c-0.157,0-0.394-0.086-0.709-0.258L135.094,33.448z"/>
</g>
<g enable-background="new    ">
	<path fill="#62A35B" d="M173.55,27.367v16.8h7.09c0.444,0,0.759,0.083,0.945,0.247c0.187,0.165,0.279,0.384,0.279,0.655
		c0,0.258-0.093,0.473-0.279,0.645s-0.501,0.258-0.945,0.258h-15.984c-0.43,0-0.737-0.086-0.924-0.258s-0.279-0.387-0.279-0.645
		c0-0.271,0.093-0.49,0.279-0.655c0.187-0.164,0.494-0.247,0.924-0.247h7.09V29.194h-5.264c-0.43,0-0.741-0.086-0.935-0.258
		s-0.29-0.387-0.29-0.645c0-0.271,0.093-0.494,0.279-0.666s0.501-0.258,0.945-0.258H173.55z M173.486,18.108v4.662h-2.664v-4.662
		H173.486z"/>
	<path fill="#62A35B" d="M190.781,27.367v1.826c1.532-1.646,3.072-2.471,4.619-2.471c0.931,0,1.747,0.247,2.449,0.741
		s1.289,1.243,1.762,2.245c0.802-1.002,1.615-1.751,2.438-2.245s1.65-0.741,2.481-0.741c1.304,0,2.342,0.423,3.115,1.268
		c1.017,1.089,1.525,2.277,1.525,3.566v12.611h1.525c0.43,0,0.737,0.083,0.924,0.247c0.187,0.165,0.279,0.384,0.279,0.655
		c0,0.258-0.093,0.473-0.279,0.645s-0.494,0.258-0.924,0.258h-3.33V31.729c0-0.916-0.279-1.676-0.838-2.277
		s-1.203-0.902-1.934-0.902c-0.659,0-1.354,0.247-2.084,0.741s-1.562,1.465-2.492,2.911v11.966h1.504
		c0.43,0,0.737,0.083,0.924,0.247c0.187,0.165,0.279,0.384,0.279,0.655c0,0.258-0.093,0.473-0.279,0.645s-0.494,0.258-0.924,0.258
		h-3.33V31.858c0-0.959-0.283-1.751-0.849-2.374s-1.199-0.935-1.901-0.935c-0.645,0-1.282,0.208-1.912,0.623
		c-0.874,0.588-1.79,1.598-2.75,3.029v11.966h1.525c0.43,0,0.737,0.083,0.924,0.247c0.187,0.165,0.279,0.384,0.279,0.655
		c0,0.258-0.093,0.473-0.279,0.645s-0.494,0.258-0.924,0.258h-4.855c-0.43,0-0.737-0.086-0.924-0.258s-0.279-0.387-0.279-0.645
		c0-0.271,0.093-0.49,0.279-0.655c0.187-0.164,0.494-0.247,0.924-0.247h1.525V29.194h-1.525c-0.43,0-0.737-0.086-0.924-0.258
		s-0.279-0.394-0.279-0.666c0-0.258,0.093-0.473,0.279-0.645s0.494-0.258,0.924-0.258H190.781z"/>
	<path fill="#62A35B" d="M231.472,30.676v-3.309h4.232c0.43,0,0.737,0.086,0.924,0.258s0.279,0.395,0.279,0.666
		c0,0.258-0.093,0.473-0.279,0.645s-0.494,0.258-0.924,0.258h-2.428v18.025c0,1.203-0.258,2.277-0.773,3.223
		c-0.344,0.63-0.917,1.281-1.719,1.955c-0.802,0.673-1.532,1.152-2.191,1.439c-0.659,0.286-1.54,0.43-2.643,0.43h-5.113
		c-0.43,0-0.737-0.083-0.924-0.247c-0.187-0.165-0.279-0.384-0.279-0.655c0-0.272,0.093-0.494,0.279-0.666s0.494-0.258,0.924-0.258
		l5.178,0.021c1.06,0,2.016-0.272,2.868-0.816c0.853-0.545,1.558-1.34,2.116-2.385c0.315-0.602,0.473-1.368,0.473-2.299v-5.414
		c-1.934,2.65-4.426,3.975-7.477,3.975c-2.478,0-4.615-0.92-6.413-2.761c-1.798-1.84-2.696-4.057-2.696-6.649
		c0-2.591,0.898-4.804,2.696-6.638c1.798-1.833,3.936-2.75,6.413-2.75C227.046,26.723,229.539,28.041,231.472,30.676z
		 M231.472,36.111c0-2.119-0.727-3.91-2.181-5.371s-3.19-2.191-5.21-2.191s-3.753,0.734-5.199,2.202
		c-1.446,1.469-2.17,3.255-2.17,5.36c0,2.12,0.724,3.914,2.17,5.382c1.446,1.469,3.18,2.202,5.199,2.202s3.756-0.733,5.21-2.202
		C230.746,40.025,231.472,38.231,231.472,36.111z"/>
</g>
<g enable-background="new    ">
	<path d="M262.904,33.448l-19.508,10.871c-0.315,0.172-0.552,0.258-0.709,0.258c-0.243,0-0.455-0.089-0.634-0.269
		c-0.179-0.179-0.269-0.39-0.269-0.634c0-0.357,0.243-0.673,0.73-0.945l16.715-9.281l-16.693-9.281
		c-0.487-0.271-0.73-0.587-0.73-0.945c0-0.243,0.09-0.454,0.269-0.634c0.179-0.179,0.391-0.269,0.634-0.269
		c0.157,0,0.394,0.086,0.709,0.258L262.904,33.448z"/>
</g>
</svg>
